# xmcd
#
# Track frame offsets: 
#        150
#        15727
#        32715
#        60365
#        78712
#        90240
#        108807
#        125245
#        151295
#        173922
#        177055
#        199550
#        221152
#        248280
#        249802
#        279262
#        299010
#        323080
#
# Disc length: 4598 seconds
#
# Revision: 2
# Processed by: cddbd v1.5.2PL0 Copyright (c) Steve Scherf et al.
# Submitted via: ExactAudioCopy v1.0b1
#
DISCID=e911f412
DTITLE=Manchild - Power and Love and Feel The Puff
DYEAR=1997
DGENRE=Funk
TTITLE0=Red Hot Daddy
TTITLE1=(I Want To Feel Your) Power And Love
TTITLE2=Espacially For You
TTITLE3=Takin' It To The Streets
TTITLE4=You Get What You Give
TTITLE5=We Need We
TTITLE6=These Are The Things That Are Special To Me
TTITLE7=Funky Situation
TTITLE8=The Phuff
TTITLE9=Koriko
TTITLE10=Walk With Me (Ande Cormigo)
TTITLE11=If You Don't Tell No One
TTITLE12=Joy
TTITLE13=Rowdy-Dowdy Blues
TTITLE14=Don't Get Me Rowdy
TTITLE15=Our Message
TTITLE16=Maybe My Baby
TTITLE17=One Tender Moment
EXTD=
EXTT0=
EXTT1=
EXTT2=
EXTT3=
EXTT4=
EXTT5=
EXTT6=
EXTT7=
EXTT8=
EXTT9=
EXTT10=
EXTT11=
EXTT12=
EXTT13=
EXTT14=
EXTT15=
EXTT16=
EXTT17=
PLAYORDER=
